<svg width="32" height="32" viewBox="0 0 32 32" fill="none" xmlns="http://www.w3.org/2000/svg">
<g clip-path="url(#clip0)">
<path d="M9.1504 23.6C8.75878 23.6006 8.38063 23.4571 8.088 23.1968L-0.00799942 16L8.5376 8.4032C8.85613 8.13071 9.26887 7.9941 9.68707 8.02276C10.1053 8.05141 10.4955 8.24304 10.7739 8.55643C11.0523 8.86982 11.1966 9.27994 11.1757 9.6986C11.1549 10.1173 10.9705 10.511 10.6624 10.7952L4.808 16L10.2128 20.8032C10.4556 21.0187 10.6272 21.3029 10.7046 21.6181C10.7821 21.9333 10.7619 22.2647 10.6466 22.5682C10.5313 22.8716 10.3265 23.1329 10.0592 23.3172C9.792 23.5014 9.47502 23.6001 9.1504 23.6V23.6ZM23.4624 23.5968L32.008 16L23.912 8.8032C23.5948 8.52143 23.1787 8.37721 22.7551 8.40227C22.3316 8.42732 21.9354 8.6196 21.6536 8.9368C21.3718 9.254 21.2276 9.67014 21.2527 10.0937C21.2777 10.5172 21.47 10.9134 21.7872 11.1952L27.192 16L21.3376 21.2032C21.0202 21.485 20.8277 21.8813 20.8025 22.305C20.7773 22.7286 20.9214 23.145 21.2032 23.4624C21.485 23.7798 21.8813 23.9723 22.305 23.9975C22.7286 24.0227 23.145 23.8786 23.4624 23.5968V23.5968ZM15.9776 25.864L19.1776 6.664C19.2185 6.45416 19.217 6.23826 19.173 6.02903C19.1291 5.8198 19.0437 5.6215 18.9219 5.44584C18.8 5.27017 18.6442 5.12071 18.4636 5.00627C18.283 4.89184 18.0814 4.81475 17.8705 4.77957C17.6596 4.74439 17.4438 4.75183 17.2359 4.80144C17.0279 4.85105 16.832 4.94184 16.6597 5.06843C16.4875 5.19503 16.3423 5.35486 16.2328 5.5385C16.1234 5.72213 16.0518 5.92585 16.0224 6.1376L12.8224 25.3376C12.7815 25.5474 12.783 25.7633 12.827 25.9726C12.8709 26.1818 12.9563 26.3801 13.0781 26.5558C13.2 26.7314 13.3558 26.8809 13.5364 26.9953C13.717 27.1098 13.9186 27.1868 14.1295 27.222C14.3404 27.2572 14.5562 27.2498 14.7641 27.2002C14.9721 27.1505 15.168 27.0598 15.3403 26.9332C15.5125 26.8066 15.6577 26.6467 15.7672 26.4631C15.8766 26.2795 15.9482 26.0758 15.9776 25.864V25.864Z" fill="#333333"/>
</g>
<defs>
<clipPath id="clip0">
<rect width="32" height="32" fill="white"/>
</clipPath>
</defs>
</svg>
