<svg width="94" height="60" viewBox="0 0 94 60" fill="none" xmlns="http://www.w3.org/2000/svg">
<rect x="0.5" y="0.5" width="93" height="59" rx="2.5" fill="white" stroke="#6E7F94" stroke-linecap="round" stroke-linejoin="round"/>
<rect x="1" y="1" width="92" height="8.78788" fill="#6E7F94"/>
<rect x="16.0385" y="3.63637" width="63.6923" height="3.51515" rx="1" fill="#3E4855"/>
<ellipse cx="4.09615" cy="4.95455" rx="1.32692" ry="1.31818" fill="#F26B6B"/>
<ellipse cx="7.63461" cy="4.95455" rx="1.32692" ry="1.31818" fill="#F2D46B"/>
<ellipse cx="11.1731" cy="4.95455" rx="1.32692" ry="1.31818" fill="#7DE064"/>
<rect x="4.72973" y="12.1155" width="24.8649" height="41.9918" rx="1" fill="#818BE3"/>
<rect x="33.3243" y="46.697" width="53.4595" height="7.41032" rx="1" fill="#ACE381"/>
<rect x="47" y="36.8165" width="22.3784" height="2.47011" rx="1.23505" fill="#C4C4C4"/>
<rect x="51.973" y="40.5217" width="12.4324" height="2.47011" rx="1.23505" fill="#C4C4C4"/>
<ellipse cx="58.1892" cy="23.231" rx="11.1892" ry="11.1155" fill="#C4C4C4"/>
<path d="M58.1892 13.3505C60.9368 13.3505 63.1622 15.5613 63.1622 18.2908C63.1622 21.0202 60.9368 23.231 58.1892 23.231C55.4416 23.231 53.2162 21.0202 53.2162 18.2908C53.2162 15.5613 55.4416 13.3505 58.1892 13.3505ZM58.1892 33.1114C58.1892 33.1114 68.1351 33.1114 68.1351 30.6413C68.1351 27.6772 63.2865 24.466 58.1892 24.466C53.0919 24.466 48.2432 27.6772 48.2432 30.6413C48.2432 33.1114 58.1892 33.1114 58.1892 33.1114Z" fill="black"/>
</svg>
