<svg width="24" height="24" viewBox="0 0 24 24" fill="none" xmlns="http://www.w3.org/2000/svg">
<path d="M12 16.006C12.5552 16.843 13.3117 17.5273 14.2 17.996L12 20.196L9.8 17.996C10.6883 17.5273 11.4448 16.843 12 16.006V16.006ZM17 11.196C16.4696 11.196 15.9609 11.4067 15.5858 11.7818C15.2107 12.1569 15 12.6656 15 13.196C15 13.7264 15.2107 14.2351 15.5858 14.6102C15.9609 14.9853 16.4696 15.196 17 15.196C17.5304 15.196 18.0391 14.9853 18.4142 14.6102C18.7893 14.2351 19 13.7264 19 13.196C19 12.6656 18.7893 12.1569 18.4142 11.7818C18.0391 11.4067 17.5304 11.196 17 11.196ZM7 11.196C6.46957 11.196 5.96086 11.4067 5.58579 11.7818C5.21071 12.1569 5 12.6656 5 13.196C5 13.7264 5.21071 14.2351 5.58579 14.6102C5.96086 14.9853 6.46957 15.196 7 15.196C7.53043 15.196 8.03914 14.9853 8.41421 14.6102C8.78929 14.2351 9 13.7264 9 13.196C9 12.6656 8.78929 12.1569 8.41421 11.7818C8.03914 11.4067 7.53043 11.196 7 11.196ZM17 8.69601C18.0609 8.69601 19.0783 9.11743 19.8284 9.86758C20.5786 10.6177 21 11.6351 21 12.696C21 13.7569 20.5786 14.7743 19.8284 15.5244C19.0783 16.2746 18.0609 16.696 17 16.696C15.9391 16.696 14.9217 16.2746 14.1716 15.5244C13.4214 14.7743 13 13.7569 13 12.696C13 11.6351 13.4214 10.6177 14.1716 9.86758C14.9217 9.11743 15.9391 8.69601 17 8.69601V8.69601ZM7 8.69601C8.06087 8.69601 9.07828 9.11743 9.82843 9.86758C10.5786 10.6177 11 11.6351 11 12.696C11 13.7569 10.5786 14.7743 9.82843 15.5244C9.07828 16.2746 8.06087 16.696 7 16.696C5.93913 16.696 4.92172 16.2746 4.17157 15.5244C3.42143 14.7743 3 13.7569 3 12.696C3 11.6351 3.42143 10.6177 4.17157 9.86758C4.92172 9.11743 5.93913 8.69601 7 8.69601V8.69601ZM2.244 0.975006C4 4.69501 2.729 7.45801 1.554 10.195C1.19159 10.9788 1.00262 11.8315 1 12.695C1 14.2863 1.63214 15.8124 2.75736 16.9376C3.88258 18.0629 5.4087 18.695 7 18.695C7.21 18.693 7.421 18.677 7.63 18.653L10.586 21.608L12 23.023L13.414 21.609L16.369 18.654C16.579 18.678 16.789 18.694 17 18.695C17.788 18.6951 18.5682 18.54 19.2963 18.2386C20.0243 17.9371 20.6858 17.4951 21.2429 16.9379C21.8001 16.3808 22.2421 15.7193 22.5435 14.9913C22.845 14.2632 23.0001 13.483 23 12.695C23 11.832 22.808 10.979 22.445 10.195C21.271 7.45901 20 4.69501 21.755 0.977006C19.119 3.05501 15.36 4.68901 12 4.69501C8.641 4.69001 4.882 3.05501 2.244 0.977006V0.975006Z" fill="black"/>
</svg>
